<svg width="14" height="14" viewBox="0 0 14 14" fill="none" xmlns="http://www.w3.org/2000/svg">
<g clip-path="url(#clip0_316_538)">
<path d="M10.5 9V4.5C10.5 4.36739 10.4473 4.24021 10.3536 4.14645C10.2598 4.05268 10.1326 4 10 4H2C1.86739 4 1.74021 4.05268 1.64645 4.14645C1.55268 4.24021 1.5 4.36739 1.5 4.5V9C1.5 9.53043 1.71071 10.0391 2.08579 10.4142C2.46086 10.7893 2.96957 11 3.5 11H8.5C9.03043 11 9.53914 10.7893 9.91421 10.4142C10.2893 10.0391 10.5 9.53043 10.5 9ZM10.5 9H11.5C12.0304 9 12.5391 8.78929 12.9142 8.41421C13.2893 8.03914 13.5 7.53043 13.5 7C13.5 6.46957 13.2893 5.96086 12.9142 5.58579C12.5391 5.21071 12.0304 5 11.5 5H10.5M0.5 13.5H13.5M3 0.5V1.5M8 0.5V1.5M5.5 0.5V1.5" stroke="black" stroke-opacity="0.7" stroke-linecap="round" stroke-linejoin="round"/>
</g>
<defs>
<clipPath id="clip0_316_538">
<rect width="14" height="14" fill="white"/>
</clipPath>
</defs>
</svg>
