<svg width="45" height="9" viewBox="0 0 45 9" fill="none" xmlns="http://www.w3.org/2000/svg">
<path fill-rule="evenodd" clip-rule="evenodd" d="M43.6046 6.9863C43.2824 6.9863 43.0773 6.93828 42.9308 6.79423C42.8136 6.67419 42.755 6.48212 42.755 6.19402V4.46543H44.1906L44.0148 3.16898H42.7843V1.99256V1.03223C42.7843 1.03223 42.2276 1.05624 42.0519 1.08025C41.1143 1.12826 40.4991 1.65644 40.4991 2.23264V3.241L39.6201 3.28902V4.48943H40.4991V6.48212C40.4991 7.08233 40.7041 7.5625 41.085 7.92263C41.4659 8.28275 42.0519 8.45081 42.8136 8.45081C43.1945 8.45081 43.4874 8.4268 43.7511 8.40279C44.1613 8.33077 44.4543 8.04267 44.4543 7.68254V6.81824C44.1906 6.91427 43.8976 6.9863 43.6046 6.9863Z" fill="#FF6100"/>
<path fill-rule="evenodd" clip-rule="evenodd" d="M20.6359 7.15425C20.8703 7.05822 21.0461 6.96218 21.1632 6.81813V6.36198C20.7824 6.1459 20.3722 6.04987 19.9034 6.04987C19.6105 6.04987 19.3761 6.09788 19.2003 6.21793C19.0245 6.31396 18.9659 6.48202 18.9659 6.67408C18.9659 6.86615 19.0538 7.01021 19.2003 7.13025C19.3468 7.22628 19.5812 7.2983 19.9034 7.2983C20.1378 7.27429 20.4015 7.22627 20.6359 7.15425ZM17.3252 7.97054C16.8565 7.65843 16.5928 7.22627 16.5928 6.67408C16.5928 6.09788 16.8272 5.66573 17.2959 5.35362C17.7647 5.04152 18.4092 4.89747 19.2882 4.89747C19.6105 4.89747 19.962 4.92147 20.2843 4.9935C20.6066 5.06552 20.8996 5.13755 21.1632 5.23358V5.13755C21.1632 4.58536 20.6066 4.32127 19.5226 4.32127C18.7608 4.32127 18.292 4.36929 17.6768 4.60937C17.6768 4.60937 17.5889 4.10519 17.5596 3.91312C17.501 3.52899 17.8819 3.24089 18.4971 3.14486C18.9366 3.07284 19.4054 3.04883 19.9034 3.04883C21.0461 3.04883 21.925 3.24089 22.511 3.62503C23.0969 4.00916 23.3899 4.53735 23.3899 5.20958V7.53839C23.3899 8.1626 23.1262 8.30666 22.4817 8.30666H21.3097L21.2511 7.8745C21.0168 8.06657 20.7238 8.21062 20.3722 8.30666C20.0206 8.40269 19.6105 8.47471 19.171 8.47471C18.4385 8.42669 17.794 8.28265 17.3252 7.97054Z" fill="#FF6100"/>
<path fill-rule="evenodd" clip-rule="evenodd" d="M36.5148 7.15425C36.7492 7.05822 36.925 6.96218 37.0422 6.81813V6.36198C36.6613 6.1459 36.2511 6.04987 35.7824 6.04987C35.4894 6.04987 35.255 6.09788 35.0792 6.21793C34.9034 6.31396 34.8448 6.48202 34.8448 6.67408C34.8448 6.86615 34.9327 7.01021 35.0792 7.13025C35.2257 7.22628 35.4601 7.2983 35.7824 7.2983C36.0167 7.27429 36.2804 7.22627 36.5148 7.15425ZM33.2041 7.97054C32.7354 7.65843 32.4717 7.22627 32.4717 6.67408C32.4717 6.09788 32.7061 5.66573 33.1748 5.35362C33.6436 5.04152 34.2882 4.89747 35.1671 4.89747C35.4894 4.89747 35.8409 4.92147 36.1632 4.9935C36.4855 5.06552 36.7785 5.13755 37.0422 5.23358V5.13755C37.0422 4.58536 36.4855 4.32127 35.4015 4.32127C34.6397 4.32127 34.171 4.36929 33.5557 4.60937C33.5557 4.60937 33.4678 4.10519 33.4385 3.91312C33.3799 3.52899 33.7608 3.24089 34.376 3.14486C34.8155 3.07284 35.2843 3.04883 35.7824 3.04883C36.925 3.04883 37.8039 3.24089 38.3899 3.62503C38.9758 4.00916 39.2688 4.53735 39.2688 5.20958V7.53839C39.2688 8.1626 39.0051 8.30666 38.3606 8.30666H37.1887L37.1301 7.8745C36.8957 8.06657 36.6027 8.21062 36.2511 8.30666C35.8995 8.40269 35.4894 8.47471 35.0499 8.47471C34.3175 8.42669 33.6729 8.28265 33.2041 7.97054Z" fill="#FF6100"/>
<path fill-rule="evenodd" clip-rule="evenodd" d="M4.55093 6.9863C4.22865 6.9863 4.02357 6.93828 3.87708 6.79423C3.75988 6.67419 3.70129 6.48212 3.70129 6.19402V4.46543H5.13689L4.9611 3.16898H3.73059V1.99256V1.03223C3.73059 1.03223 3.17393 1.05624 2.99814 1.08025C2.0606 1.12826 1.44535 1.65644 1.44535 2.23264V3.241L0.566406 3.28902V4.48943H1.44535V6.48212C1.44535 7.08233 1.65043 7.5625 2.0313 7.92263C2.41218 8.28275 2.99814 8.45081 3.75988 8.45081C4.14076 8.45081 4.43374 8.4268 4.69742 8.40279C5.10759 8.33077 5.40057 8.04267 5.40057 7.68254V6.81824C5.10759 6.91427 4.81461 6.9863 4.55093 6.9863Z" fill="#FF6100"/>
<path fill-rule="evenodd" clip-rule="evenodd" d="M9.85366 7.15425C10.088 7.05822 10.2638 6.96218 10.381 6.81813V6.36198C10.0002 6.1459 9.58998 6.04987 9.12121 6.04987C8.82823 6.04987 8.59385 6.09788 8.41806 6.21793C8.24228 6.31396 8.18368 6.48202 8.18368 6.67408C8.18368 6.86615 8.27157 7.01021 8.41806 7.13025C8.56455 7.22628 8.79894 7.2983 9.12121 7.2983C9.3849 7.27429 9.61928 7.22627 9.85366 7.15425ZM6.57229 7.97054C6.10353 7.65843 5.83984 7.22627 5.83984 6.67408C5.83984 6.09788 6.07423 5.66573 6.54299 5.35362C7.01176 5.04152 7.65632 4.89747 8.53525 4.89747C8.85753 4.89747 9.20911 4.92147 9.53139 4.9935C9.85367 5.06552 10.1466 5.13755 10.4103 5.23358V5.13755C10.4103 4.58536 9.85366 4.32127 8.76964 4.32127C8.00789 4.32127 7.53912 4.36929 6.92387 4.60937C6.92387 4.60937 6.83598 4.10519 6.80668 3.91312C6.74808 3.52899 7.12895 3.24089 7.74421 3.14486C8.18368 3.07284 8.65245 3.04883 9.15051 3.04883C10.2931 3.04883 11.1721 3.24089 11.758 3.62503C12.344 4.00916 12.637 4.53735 12.637 5.20958V7.53839C12.637 8.1626 12.3733 8.30666 11.7287 8.30666H10.5568L10.4982 7.8745C10.2638 8.06657 9.97085 8.21062 9.61928 8.30666C9.2677 8.40269 8.85753 8.47471 8.41806 8.47471C7.65632 8.42669 7.04106 8.28265 6.57229 7.97054Z" fill="#FF6100"/>
<path fill-rule="evenodd" clip-rule="evenodd" d="M15.7716 8.25884V0.576172C15.7716 0.576172 15.2442 0.600183 15.0391 0.624192C14.1016 0.672208 13.4863 1.20039 13.4863 1.77659V8.25884H15.7716Z" fill="#FF6100"/>
<path fill-rule="evenodd" clip-rule="evenodd" d="M29.2785 6.65029C28.9855 6.86636 28.6047 6.9864 28.1652 6.9864C27.8136 6.9864 27.5206 6.91438 27.2276 6.77033C26.964 6.62628 26.7589 6.43421 26.6417 6.17012V5.2578C26.7589 5.01772 26.964 4.82565 27.2276 4.65759C27.4913 4.51354 27.8136 4.44152 28.1652 4.44152C28.6339 4.44152 29.0148 4.56156 29.2785 4.77763C29.5715 4.99371 29.718 5.30582 29.718 5.68995C29.718 6.12211 29.5715 6.43421 29.2785 6.65029ZM31.6223 4.32148C31.3587 3.91333 30.9485 3.57722 30.4504 3.36114C29.9524 3.14507 29.3664 3.02503 28.7218 3.02503C28.3117 3.02503 27.9015 3.07304 27.5499 3.16908C27.1691 3.26511 26.8761 3.40916 26.6124 3.57722V0.576172C26.6124 0.576172 26.0557 0.600183 25.8799 0.624192C24.9424 0.672208 24.3271 1.20039 24.3271 1.77659V8.25884H26.4659L26.5245 7.75467C27.1105 8.21083 27.8429 8.42691 28.7218 8.42691C29.3664 8.42691 29.9524 8.30687 30.4504 8.09079C30.9485 7.87471 31.3294 7.5626 31.6223 7.15446C31.886 6.74632 32.0325 6.26615 32.0325 5.73797C32.0325 5.20978 31.9153 4.72962 31.6223 4.32148Z" fill="#FF6100"/>
</svg>
