<svg width="24" height="24" viewBox="0 0 24 24" fill="none" xmlns="http://www.w3.org/2000/svg">
<mask id="mask0_316_489" style="mask-type:alpha" maskUnits="userSpaceOnUse" x="0" y="0" width="24" height="24">
<rect width="24" height="24" fill="#D9D9D9"/>
</mask>
<g mask="url(#mask0_316_489)">
<path d="M12 11.677C11.0375 11.677 10.244 11.3648 9.61947 10.7403C8.99496 10.1157 8.6827 9.32064 8.6827 8.35496C8.6827 7.38926 8.99496 6.59575 9.61947 5.97443C10.244 5.35313 11.0375 5.04248 12 5.04248C12.9625 5.04248 13.756 5.35313 14.3805 5.97443C15.005 6.59575 15.3172 7.38926 15.3172 8.35496C15.3172 9.32064 15.005 10.1157 14.3805 10.7403C13.756 11.3648 12.9625 11.677 12 11.677ZM4.5 19.3078V17.4097C4.5 16.8726 4.64231 16.4046 4.92692 16.0059C5.21154 15.6072 5.58142 15.3008 6.03655 15.0867C7.0891 14.6187 8.10373 14.2662 9.08045 14.029C10.0572 13.7918 11.0303 13.6732 11.9997 13.6732C12.9691 13.6732 13.9397 13.7944 14.9115 14.0367C15.8833 14.279 16.8934 14.6312 17.9418 15.0935C18.4147 15.307 18.7926 15.6121 19.0755 16.0089C19.3585 16.4056 19.5 16.8726 19.5 17.4097V19.3078H4.5ZM5.6346 18.1732H18.3654V17.4097C18.3654 17.1495 18.283 16.9001 18.1182 16.6617C17.9535 16.4232 17.7384 16.236 17.473 16.1001C16.4897 15.6219 15.5622 15.287 14.6905 15.0953C13.8188 14.9036 12.9219 14.8078 12 14.8078C11.078 14.8078 10.1744 14.9036 9.28927 15.0953C8.40411 15.287 7.47819 15.6219 6.51152 16.1001C6.24614 16.236 6.03364 16.4232 5.87402 16.6617C5.71441 16.9001 5.6346 17.1495 5.6346 17.4097V18.1732ZM12 10.5425C12.6243 10.5425 13.1442 10.3348 13.5596 9.91936C13.975 9.50397 14.1827 8.98411 14.1827 8.35976C14.1827 7.73541 13.975 7.21554 13.5596 6.80016C13.1442 6.38477 12.6243 6.17708 12 6.17708C11.3756 6.17708 10.8558 6.38477 10.4404 6.80016C10.025 7.21554 9.8173 7.73541 9.8173 8.35976C9.8173 8.98411 10.025 9.50397 10.4404 9.91936C10.8558 10.3348 11.3756 10.5425 12 10.5425Z" fill="black" fill-opacity="0.5"/>
</g>
</svg>
