<svg width="24" height="24" viewBox="0 0 24 24" fill="none" xmlns="http://www.w3.org/2000/svg">
<rect width="24" height="24" fill="#F6F6F6"/>
<path fill-rule="evenodd" clip-rule="evenodd" d="M15.4045 17.4466C14.7045 17.4466 14.2591 17.3301 13.9409 16.9806C13.6864 16.6893 13.5591 16.2233 13.5591 15.5243V11.3301H16.6773L16.2955 8.18448H13.6227V5.3301V3C13.6227 3 12.4136 3.05826 12.0318 3.11651C9.99546 3.23302 8.65909 4.51456 8.65909 5.91262V8.35923L6.75 8.47574V11.3884H8.65909V16.2233C8.65909 17.6796 9.10455 18.8447 9.93182 19.7184C10.7591 20.5922 12.0318 21 13.6864 21C14.5136 21 15.15 20.9417 15.7227 20.8835C16.6136 20.7087 17.25 20.0097 17.25 19.1359V17.0388C16.6136 17.2718 15.9773 17.4466 15.4045 17.4466Z" fill="#FF6100"/>
</svg>
