<svg width="20" height="20" viewBox="0 0 20 20" fill="none" xmlns="http://www.w3.org/2000/svg">
<rect width="20" height="20" fill="#F6F6F6"/>
<path fill-rule="evenodd" clip-rule="evenodd" d="M12.8371 14.5388C12.2538 14.5388 11.8826 14.4417 11.6174 14.1505C11.4053 13.9078 11.2992 13.5194 11.2992 12.9369V9.44175H13.8977L13.5795 6.8204H11.3523V4.44175V2.5C11.3523 2.5 10.3447 2.54855 10.0265 2.59709C8.32955 2.69418 7.21591 3.76213 7.21591 4.92718V6.96602L5.625 7.06312V9.4903H7.21591V13.5194C7.21591 14.733 7.58712 15.7039 8.27652 16.432C8.96591 17.1602 10.0265 17.5 11.4053 17.5C12.0947 17.5 12.625 17.4515 13.1023 17.4029C13.8447 17.2573 14.375 16.6748 14.375 15.9466V14.199C13.8447 14.3932 13.3144 14.5388 12.8371 14.5388Z" fill="black" fill-opacity="0.5"/>
</svg>
