<svg width="32" height="31" viewBox="0 0 32 31" fill="none" xmlns="http://www.w3.org/2000/svg">
<path d="M10.24 15.1203C9.71 14.3252 8.705 14.1616 8 14.7594C7.295 15.3571 7.15 16.4906 7.68 17.2857L9.585 20.1504C9.825 20.5113 9.79 21.0131 9.51 21.3289L8.87 22.0507C8.535 22.4285 7.99 22.4004 7.69 21.9887L3.2 15.9097V7.54133C3.2 6.54321 2.485 5.73682 1.6 5.73682C0.715 5.73682 0 6.54321 0 7.54133V19.8571C0 20.4718 0.185 21.0695 0.525 21.5488L5.73 29.1222C5.98 29.4887 6.15 29.906 6.25 30.3458C6.34 30.7349 6.655 31 7.015 31H13.6C14.04 31 14.4 30.594 14.4 30.0977V23.7819C14.4 22.2199 13.95 20.703 13.12 19.4511L10.24 15.1203ZM30.4 5.73682C29.515 5.73682 28.8 6.54321 28.8 7.54133V15.9097L24.31 21.9887C24.01 22.3947 23.46 22.4229 23.13 22.0507L22.49 21.3289C22.21 21.0131 22.175 20.5113 22.415 20.1504L24.32 17.2857C24.85 16.4906 24.705 15.3571 24 14.7594C23.295 14.1616 22.29 14.3252 21.76 15.1203L18.88 19.4511C18.05 20.703 17.6 22.2199 17.6 23.7819V30.0977C17.6 30.594 17.96 31 18.4 31H24.985C25.34 31 25.66 30.7349 25.75 30.3458C25.85 29.906 26.02 29.4887 26.27 29.1222L31.475 21.5488C31.815 21.0695 32 20.4718 32 19.8571V7.54133C32 6.54321 31.285 5.73682 30.4 5.73682Z" fill="#FF6100"/>
<path d="M7.58301 6.85281C7.58301 10.5001 10.7655 12.4433 13.0946 14.1833C13.9163 14.7968 14.708 15.3751 15.4997 15.3751C16.2913 15.3751 17.083 14.7976 17.9048 14.1826C20.2346 12.4441 23.4163 10.5001 23.4163 6.85356C23.4163 3.20631 19.0622 0.619564 15.4997 4.12656C11.9372 0.618814 7.58301 3.20556 7.58301 6.85281Z" fill="#FF6100"/>
</svg>
