<svg width="32" height="32" viewBox="0 0 32 32" fill="none" xmlns="http://www.w3.org/2000/svg">
<rect width="32" height="32" fill="#FFEEE6"/>
<path fill-rule="evenodd" clip-rule="evenodd" d="M20.5394 23.2621C19.6061 23.2621 19.0121 23.1068 18.5879 22.6408C18.2485 22.2524 18.0788 21.6311 18.0788 20.699V15.1068H22.2364L21.7273 10.9126H18.1636V7.10679V4C18.1636 4 16.5515 4.07768 16.0424 4.15535C13.3273 4.31069 11.5455 6.01942 11.5455 7.88349V11.1456L9 11.301V15.1845H11.5455V21.6311C11.5455 23.5728 12.1394 25.1262 13.2424 26.2913C14.3455 27.4563 16.0424 28 18.2485 28C19.3515 28 20.2 27.9223 20.9636 27.8447C22.1515 27.6116 23 26.6796 23 25.5146V22.7184C22.1515 23.0291 21.303 23.2621 20.5394 23.2621Z" fill="#FF6100"/>
<path d="M5.26773 5.21017L3.8044 5.37239C3.75162 5.37878 3.70496 5.41406 3.68746 5.46767C3.66996 5.52128 3.68746 5.57711 3.72635 5.61239C4.16135 6.00934 4.81496 6.60378 4.81496 6.60378C4.8144 6.60378 4.63551 7.4685 4.51662 8.04545C4.51096 8.07156 4.513 8.09876 4.52252 8.12373C4.53203 8.1487 4.5486 8.17036 4.57021 8.18608C4.59182 8.2018 4.61753 8.2109 4.64422 8.21226C4.6709 8.21363 4.69741 8.20721 4.72051 8.19378C5.23273 7.90267 5.99996 7.46489 5.99996 7.46489L7.27885 8.19406C7.32551 8.21961 7.38385 8.21906 7.42912 8.186C7.45066 8.17029 7.46723 8.1487 7.47683 8.12383C7.48644 8.09895 7.48868 8.07184 7.48329 8.04572L7.18579 6.60378L8.2744 5.61322C8.29412 5.59529 8.30824 5.57205 8.31509 5.5463C8.32193 5.52054 8.32121 5.49336 8.313 5.468C8.3048 5.44265 8.28945 5.42019 8.26881 5.40333C8.24817 5.38648 8.22311 5.37593 8.19662 5.37295C7.61107 5.30739 6.73301 5.21017 6.73301 5.21017L6.12662 3.8685C6.11563 3.84424 6.09787 3.82366 6.07548 3.80922C6.05309 3.79479 6.02701 3.78711 6.00037 3.78711C5.97373 3.78711 5.94766 3.79479 5.92527 3.80922C5.90288 3.82366 5.88512 3.84424 5.87412 3.8685L5.26773 5.21017Z" fill="#FF6100"/>
<path d="M5.7873 24.3864L4.0313 24.581C3.96796 24.5887 3.91196 24.631 3.89096 24.6954C3.86996 24.7597 3.89096 24.8267 3.93763 24.869C4.45963 25.3454 5.24396 26.0587 5.24396 26.0587C5.2433 26.0587 5.02863 27.0964 4.88596 27.7887C4.87916 27.8201 4.88162 27.8527 4.89304 27.8827C4.90446 27.9126 4.92434 27.9386 4.95027 27.9575C4.9762 27.9763 5.00705 27.9873 5.03908 27.9889C5.0711 27.9905 5.10291 27.9828 5.13063 27.9667C5.7453 27.6174 6.66596 27.092 6.66596 27.092L8.20063 27.967C8.25663 27.9977 8.32663 27.997 8.38096 27.9574C8.40681 27.9385 8.42669 27.9126 8.43822 27.8828C8.44974 27.8529 8.45243 27.8204 8.44596 27.789L8.08896 26.0587L9.3953 24.87C9.41895 24.8485 9.43591 24.8206 9.44412 24.7897C9.45234 24.7588 9.45147 24.7262 9.44162 24.6958C9.43177 24.6654 9.41336 24.6384 9.38859 24.6182C9.36382 24.598 9.33374 24.5853 9.30196 24.5817C8.5993 24.503 7.54563 24.3864 7.54563 24.3864L6.81796 22.7764C6.80477 22.7473 6.78346 22.7226 6.75659 22.7052C6.72972 22.6879 6.69843 22.6787 6.66646 22.6787C6.6345 22.6787 6.6032 22.6879 6.57634 22.7052C6.54947 22.7226 6.52816 22.7473 6.51496 22.7764L5.7873 24.3864Z" fill="#FF6100"/>
<path d="M25.2677 19.8772L23.8044 20.0394C23.7516 20.0458 23.705 20.081 23.6875 20.1347C23.67 20.1883 23.6875 20.2441 23.7263 20.2794C24.1613 20.6763 24.815 21.2708 24.815 21.2708C24.8144 21.2708 24.6355 22.1355 24.5166 22.7124C24.511 22.7386 24.513 22.7657 24.5225 22.7907C24.532 22.8157 24.5486 22.8374 24.5702 22.8531C24.5918 22.8688 24.6175 22.8779 24.6442 22.8793C24.6709 22.8806 24.6974 22.8742 24.7205 22.8608C25.2327 22.5697 26 22.1319 26 22.1319L27.2788 22.861C27.3255 22.8866 27.3838 22.886 27.4291 22.853C27.4507 22.8373 27.4672 22.8157 27.4768 22.7908C27.4864 22.7659 27.4887 22.7388 27.4833 22.7127L27.1858 21.2708L28.2744 20.2802C28.2941 20.2623 28.3082 20.239 28.3151 20.2133C28.3219 20.1875 28.3212 20.1603 28.313 20.135C28.3048 20.1096 28.2895 20.0872 28.2688 20.0703C28.2482 20.0535 28.2231 20.0429 28.1966 20.0399C27.6111 19.9744 26.733 19.8772 26.733 19.8772L26.1266 18.5355C26.1156 18.5112 26.0979 18.4906 26.0755 18.4762C26.0531 18.4618 26.027 18.4541 26.0004 18.4541C25.9737 18.4541 25.9477 18.4618 25.9253 18.4762C25.9029 18.4906 25.8851 18.5112 25.8741 18.5355L25.2677 19.8772Z" fill="#FF6100"/>
</svg>
