<svg width="150" height="30" viewBox="0 0 150 30" fill="none" xmlns="http://www.w3.org/2000/svg">
<path fill-rule="evenodd" clip-rule="evenodd" d="M146.677 23.69C145.582 23.69 144.886 23.5125 144.388 22.9802C143.99 22.5365 143.791 21.8267 143.791 20.762V14.3737H148.667L148.07 9.58247H143.891V5.23485V1.68579C143.891 1.68579 142 1.77453 141.403 1.86325C138.219 2.04071 136.13 3.99268 136.13 6.12212V9.84864L133.145 10.0261V14.4624H136.13V21.8267C136.13 24.0449 136.826 25.8194 138.12 27.1503C139.413 28.4812 141.403 29.1023 143.99 29.1023C145.284 29.1023 146.279 29.0136 147.174 28.9248C148.567 28.6587 149.562 27.5939 149.562 26.263V23.0689C148.667 23.4238 147.672 23.69 146.677 23.69Z" fill="#FF6100"/>
<path fill-rule="evenodd" clip-rule="evenodd" d="M68.6669 24.3111C69.4629 23.9562 70.0599 23.6013 70.4579 23.069V21.3832C69.1644 20.5846 67.7714 20.2297 66.1793 20.2297C65.1843 20.2297 64.3883 20.4072 63.7913 20.8508C63.1942 21.2057 62.9952 21.8268 62.9952 22.5366C62.9952 23.2464 63.2937 23.7788 63.7913 24.2224C64.2888 24.5773 65.0848 24.8435 66.1793 24.8435C66.9753 24.7548 67.8709 24.5773 68.6669 24.3111ZM57.4231 27.3279C55.8311 26.1744 54.9355 24.5773 54.9355 22.5366C54.9355 20.4072 55.7316 18.8101 57.3236 17.6566C58.9156 16.5032 61.1047 15.9708 64.0898 15.9708C65.1843 15.9708 66.3783 16.0596 67.4728 16.3257C68.5674 16.5919 69.5624 16.8581 70.4579 17.213V16.8581C70.4579 14.8174 68.5674 13.8414 64.8858 13.8414C62.2987 13.8414 60.7067 14.0189 58.6171 14.9061C58.6171 14.9061 58.3186 13.0429 58.2191 12.333C58.0201 10.9134 59.3137 9.84872 61.4032 9.49382C62.8957 9.22764 64.4878 9.13892 66.1793 9.13892C70.0599 9.13892 73.045 9.84872 75.035 11.2683C77.0251 12.688 78.0201 14.64 78.0201 17.1243V25.7308C78.0201 28.0376 77.1246 28.57 74.9355 28.57H70.9554L70.7564 26.9729C69.9604 27.6827 68.9654 28.2151 67.7714 28.57C66.5773 28.9249 65.1843 29.1911 63.6918 29.1911C61.2042 29.0136 59.0151 28.4813 57.4231 27.3279Z" fill="#FF6100"/>
<path fill-rule="evenodd" clip-rule="evenodd" d="M122.598 24.3111C123.394 23.9562 123.991 23.6013 124.389 23.069V21.3832C123.095 20.5846 121.702 20.2297 120.11 20.2297C119.115 20.2297 118.319 20.4072 117.722 20.8508C117.125 21.2057 116.926 21.8268 116.926 22.5366C116.926 23.2464 117.224 23.7788 117.722 24.2224C118.219 24.5773 119.015 24.8435 120.11 24.8435C120.906 24.7548 121.802 24.5773 122.598 24.3111ZM111.354 27.3279C109.762 26.1744 108.866 24.5773 108.866 22.5366C108.866 20.4072 109.662 18.8101 111.254 17.6566C112.846 16.5032 115.035 15.9708 118.02 15.9708C119.115 15.9708 120.309 16.0596 121.404 16.3257C122.498 16.5919 123.493 16.8581 124.389 17.213V16.8581C124.389 14.8174 122.498 13.8414 118.816 13.8414C116.229 13.8414 114.637 14.0189 112.548 14.9061C112.548 14.9061 112.249 13.0429 112.15 12.333C111.951 10.9134 113.244 9.84872 115.334 9.49382C116.826 9.22764 118.418 9.13892 120.11 9.13892C123.991 9.13892 126.976 9.84872 128.966 11.2683C130.956 12.688 131.951 14.64 131.951 17.1243V25.7308C131.951 28.0376 131.055 28.57 128.866 28.57H124.886L124.687 26.9729C123.891 27.6827 122.896 28.2151 121.702 28.57C120.508 28.9249 119.115 29.1911 117.622 29.1911C115.135 29.0136 112.946 28.4813 111.354 27.3279Z" fill="#FF6100"/>
<path fill-rule="evenodd" clip-rule="evenodd" d="M14.0402 23.69C12.9456 23.69 12.2491 23.5125 11.7516 22.9802C11.3536 22.5365 11.1546 21.8267 11.1546 20.762V14.3737H16.0302L15.4332 9.58247H11.2541V5.23485V1.68579C11.2541 1.68579 9.36354 1.77453 8.76652 1.86325C5.58244 2.04071 3.49289 3.99268 3.49289 6.12212V9.84864L0.507812 10.0261V14.4624H3.49289V21.8267C3.49289 24.0449 4.1894 25.8194 5.48294 27.1503C6.77647 28.4812 8.76651 29.1023 11.3536 29.1023C12.6471 29.1023 13.6421 29.0136 14.5377 28.9248C15.9307 28.6587 16.9257 27.5939 16.9257 26.263V23.0689C15.9307 23.4238 14.9357 23.69 14.0402 23.69Z" fill="#FF6100"/>
<path fill-rule="evenodd" clip-rule="evenodd" d="M32.0498 24.3111C32.8458 23.9562 33.4428 23.6013 33.8409 23.069V21.3832C32.5473 20.5846 31.1543 20.2297 29.5622 20.2297C28.5672 20.2297 27.7712 20.4072 27.1742 20.8508C26.5772 21.2057 26.3782 21.8268 26.3782 22.5366C26.3782 23.2464 26.6767 23.7788 27.1742 24.2224C27.6717 24.5773 28.4677 24.8435 29.5622 24.8435C30.4578 24.7548 31.2538 24.5773 32.0498 24.3111ZM20.9055 27.3279C19.3135 26.1744 18.418 24.5773 18.418 22.5366C18.418 20.4072 19.214 18.8101 20.806 17.6566C22.3981 16.5032 24.5871 15.9708 27.5722 15.9708C28.6667 15.9708 29.8608 16.0596 30.9553 16.3257C32.0498 16.5919 33.0448 16.8581 33.9404 17.213V16.8581C33.9404 14.8174 32.0498 13.8414 28.3682 13.8414C25.7812 13.8414 24.1891 14.0189 22.0996 14.9061C22.0996 14.9061 21.8011 13.0429 21.7016 12.333C21.5025 10.9134 22.7961 9.84872 24.8856 9.49382C26.3782 9.22764 27.9702 9.13892 29.6618 9.13892C33.5423 9.13892 36.5274 9.84872 38.5175 11.2683C40.5075 12.688 41.5025 14.64 41.5025 17.1243V25.7308C41.5025 28.0376 40.607 28.57 38.418 28.57H34.4379L34.2389 26.9729C33.4428 27.6827 32.4478 28.2151 31.2538 28.57C30.0598 28.9249 28.6667 29.1911 27.1742 29.1911C24.5871 29.0136 22.4976 28.4813 20.9055 27.3279Z" fill="#FF6100"/>
<path fill-rule="evenodd" clip-rule="evenodd" d="M52.1499 28.3925V0C52.1499 0 50.3588 0.0887373 49.6623 0.177464C46.4782 0.354917 44.3887 2.30689 44.3887 4.43633V28.3925H52.1499Z" fill="#FF6100"/>
<path fill-rule="evenodd" clip-rule="evenodd" d="M98.02 22.4478C97.025 23.2464 95.7315 23.69 94.2389 23.69C93.0449 23.69 92.0499 23.4238 91.0548 22.8915C90.1593 22.3591 89.4628 21.6493 89.0648 20.6733V17.3017C89.4628 16.4144 90.1593 15.7046 91.0548 15.0835C91.9504 14.5511 93.0449 14.285 94.2389 14.285C95.831 14.285 97.1245 14.7286 98.02 15.5271C99.015 16.3257 99.5126 17.4791 99.5126 18.8988C99.5126 20.4958 99.015 21.6493 98.02 22.4478ZM105.98 13.8413C105.085 12.333 103.692 11.0908 102 10.2923C100.309 9.49374 98.3185 9.05011 96.1295 9.05011C94.7364 9.05011 93.3434 9.22757 92.1494 9.58248C90.8558 9.93739 89.8608 10.4697 88.9653 11.0908V0C88.9653 0 87.0747 0.0887373 86.4777 0.177464C83.2936 0.354917 81.2041 2.30689 81.2041 4.43633V28.3925H88.4678L88.6668 26.5292C90.6568 28.215 93.1444 29.0136 96.1295 29.0136C98.3185 29.0136 100.309 28.57 102 27.7714C103.692 26.9729 104.985 25.8194 105.98 24.3111C106.876 22.8027 107.373 21.0282 107.373 19.0762C107.373 17.1242 106.975 15.3497 105.98 13.8413Z" fill="#FF6100"/>
</svg>
