<svg width="232" height="46" viewBox="0 0 232 46" fill="none" xmlns="http://www.w3.org/2000/svg">
<path fill-rule="evenodd" clip-rule="evenodd" d="M226.599 37.2716C224.903 37.2716 223.823 36.996 223.052 36.1692C222.435 35.4803 222.127 34.378 222.127 32.7246V22.8039H229.684L228.758 15.3634H222.281V8.61182V3.10034C222.281 3.10034 219.35 3.23815 218.425 3.37593C213.49 3.65151 210.251 6.68281 210.251 9.98969V15.7768L205.624 16.0524V22.9417H210.251V34.378C210.251 37.8227 211.33 40.5784 213.335 42.6452C215.34 44.7121 218.425 45.6766 222.435 45.6766C224.44 45.6766 225.982 45.5388 227.37 45.401C229.53 44.9876 231.072 43.3342 231.072 41.2674V36.307C229.684 36.8582 228.141 37.2716 226.599 37.2716Z" fill="white"/>
<path fill-rule="evenodd" clip-rule="evenodd" d="M105.684 38.2361C106.918 37.685 107.843 37.1338 108.46 36.3071V33.6892C106.455 32.4491 104.296 31.8979 101.828 31.8979C100.286 31.8979 99.0521 32.1735 98.1267 32.8624C97.2014 33.4136 96.8929 34.3781 96.8929 35.4804C96.8929 36.5827 97.3556 37.4094 98.1267 38.0984C98.8979 38.6495 100.132 39.0628 101.828 39.0628C103.062 38.9251 104.45 38.6495 105.684 38.2361ZM88.2561 42.9209C85.7885 41.1297 84.4004 38.6495 84.4004 35.4804C84.4004 32.1735 85.6342 29.6933 88.1019 27.9021C90.5695 26.1109 93.9626 25.2841 98.5894 25.2841C100.286 25.2841 102.137 25.4219 103.833 25.8353C105.53 26.2486 107.072 26.662 108.46 27.2131V26.662C108.46 23.4929 105.53 21.9773 99.8233 21.9773C95.8133 21.9773 93.3456 22.2528 90.1068 23.6307C90.1068 23.6307 89.6442 20.7372 89.4899 19.6349C89.1815 17.4303 91.1865 15.7768 94.4253 15.2257C96.7387 14.8123 99.2063 14.6746 101.828 14.6746C107.843 14.6746 112.47 15.7768 115.555 17.9814C118.639 20.186 120.181 23.2174 120.181 27.0754V40.4407C120.181 44.0232 118.793 44.8499 115.4 44.8499H109.231L108.923 42.3697C107.689 43.472 106.147 44.2988 104.296 44.8499C102.445 45.4011 100.286 45.8144 97.9725 45.8144C94.1168 45.5388 90.7238 44.7121 88.2561 42.9209Z" fill="white"/>
<path fill-rule="evenodd" clip-rule="evenodd" d="M189.276 38.2361C190.51 37.685 191.435 37.1338 192.052 36.3071V33.6892C190.047 32.4491 187.888 31.8979 185.42 31.8979C183.878 31.8979 182.644 32.1735 181.719 32.8624C180.793 33.4136 180.485 34.3781 180.485 35.4804C180.485 36.5827 180.947 37.4094 181.719 38.0984C182.49 38.6495 183.724 39.0628 185.42 39.0628C186.654 38.9251 188.042 38.6495 189.276 38.2361ZM171.848 42.9209C169.38 41.1297 167.992 38.6495 167.992 35.4804C167.992 32.1735 169.226 29.6933 171.694 27.9021C174.161 26.1109 177.554 25.2841 182.181 25.2841C183.878 25.2841 185.729 25.4219 187.425 25.8353C189.122 26.2486 190.664 26.662 192.052 27.2131V26.662C192.052 23.4929 189.122 21.9773 183.415 21.9773C179.405 21.9773 176.937 22.2528 173.699 23.6307C173.699 23.6307 173.236 20.7372 173.082 19.6349C172.773 17.4303 174.778 15.7768 178.017 15.2257C180.33 14.8123 182.798 14.6746 185.42 14.6746C191.435 14.6746 196.062 15.7768 199.146 17.9814C202.231 20.186 203.773 23.2174 203.773 27.0754V40.4407C203.773 44.0232 202.385 44.8499 198.992 44.8499H192.823L192.515 42.3697C191.281 43.472 189.738 44.2988 187.888 44.8499C186.037 45.4011 183.878 45.8144 181.564 45.8144C177.709 45.5388 174.316 44.7121 171.848 42.9209Z" fill="white"/>
<path fill-rule="evenodd" clip-rule="evenodd" d="M21.0122 37.2716C19.3157 37.2716 18.2361 36.996 17.465 36.1692C16.8481 35.4803 16.5396 34.378 16.5396 32.7246V22.8039H24.0968L23.1714 15.3634H16.6938V8.61182V3.10034C16.6938 3.10034 13.7635 3.23815 12.8381 3.37593C7.90279 3.65151 4.66397 6.68281 4.66397 9.98969V15.7768L0.0371094 16.0524V22.9417H4.66397V34.378C4.66397 37.8227 5.74358 40.5784 7.74855 42.6452C9.75353 44.7121 12.8381 45.6766 16.848 45.6766C18.853 45.6766 20.3953 45.5388 21.7834 45.401C23.9426 44.9876 25.4849 43.3342 25.4849 41.2674V36.307C23.9426 36.8582 22.4003 37.2716 21.0122 37.2716Z" fill="white"/>
<path fill-rule="evenodd" clip-rule="evenodd" d="M48.9272 38.2361C50.161 37.685 51.0864 37.1338 51.7033 36.3071V33.6892C49.6983 32.4491 47.5391 31.8979 45.0715 31.8979C43.5292 31.8979 42.2954 32.1735 41.37 32.8624C40.4446 33.4136 40.1362 34.3781 40.1362 35.4804C40.1362 36.5827 40.5989 37.4094 41.37 38.0984C42.1411 38.6495 43.375 39.0628 45.0715 39.0628C46.4595 38.9251 47.6934 38.6495 48.9272 38.2361ZM31.6536 42.9209C29.1859 41.1297 27.7979 38.6495 27.7979 35.4804C27.7979 32.1735 29.0317 29.6933 31.4993 27.9021C33.967 26.1109 37.36 25.2841 41.9869 25.2841C43.6834 25.2841 45.5342 25.4219 47.2307 25.8353C48.9272 26.2486 50.4695 26.662 51.8576 27.2131V26.662C51.8576 23.4929 48.9272 21.9773 43.2207 21.9773C39.2108 21.9773 36.7431 22.2528 33.5043 23.6307C33.5043 23.6307 33.0416 20.7372 32.8874 19.6349C32.579 17.4303 34.5839 15.7768 37.8227 15.2257C40.1362 14.8123 42.6038 14.6746 45.2257 14.6746C51.2406 14.6746 55.8675 15.7768 58.9521 17.9814C62.0367 20.186 63.5789 23.2174 63.5789 27.0754V40.4407C63.5789 44.0232 62.1909 44.8499 58.7979 44.8499H52.6287L52.3202 42.3697C51.0864 43.472 49.5441 44.2988 47.6934 44.8499C45.8426 45.4011 43.6834 45.8144 41.37 45.8144C37.36 45.5388 34.1212 44.7121 31.6536 42.9209Z" fill="white"/>
<path fill-rule="evenodd" clip-rule="evenodd" d="M80.0816 44.5743V0.482422C80.0816 0.482422 77.3055 0.620226 76.2259 0.758013C71.2905 1.03359 68.0518 4.06489 68.0518 7.37177V44.5743H80.0816Z" fill="white"/>
<path fill-rule="evenodd" clip-rule="evenodd" d="M151.182 35.3426C149.64 36.5827 147.635 37.2716 145.321 37.2716C143.47 37.2716 141.928 36.8582 140.386 36.0315C138.998 35.2048 137.918 34.1025 137.301 32.5868V27.3509C137.918 25.973 138.998 24.8707 140.386 23.9062C141.774 23.0795 143.47 22.6661 145.321 22.6661C147.789 22.6661 149.794 23.3551 151.182 24.5952C152.724 25.8352 153.495 27.6265 153.495 29.8311C153.495 32.3113 152.724 34.1025 151.182 35.3426ZM163.52 21.9772C162.132 19.6348 159.973 17.7058 157.351 16.4657C154.729 15.2256 151.645 14.5367 148.252 14.5367C146.092 14.5367 143.933 14.8123 142.082 15.3634C140.077 15.9146 138.535 16.7413 137.147 17.7058V0.482422C137.147 0.482422 134.217 0.620226 133.291 0.758013C128.356 1.03359 125.117 4.06488 125.117 7.37177V44.5743H136.376L136.684 41.6807C139.769 44.2987 143.625 45.5388 148.252 45.5388C151.645 45.5388 154.729 44.8499 157.351 43.6098C159.973 42.3697 161.978 40.5784 163.52 38.2361C164.908 35.8937 165.679 33.138 165.679 30.1066C165.679 27.0753 165.062 24.3196 163.52 21.9772Z" fill="white"/>
</svg>
